<?xml version="1.0" standalone="no"?>
<!DOCTYPE svg PUBLIC "-//W3C//DTD SVG 20010904//EN"
 "http://www.w3.org/TR/2001/REC-SVG-20010904/DTD/svg10.dtd">
<svg version="1.0" xmlns="http://www.w3.org/2000/svg"
 width="16.000000pt" height="16.000000pt" viewBox="0 0 16.000000 16.000000"
 preserveAspectRatio="xMidYMid meet">
<metadata>
Created by potrace 1.11, written by Peter Selinger 2001-2013
</metadata>
<g transform="translate(0.000000,16.000000) scale(0.006250,-0.006250)"
fill="#000000" stroke="none">
<path d="M910 2255 l0 -125 -151 0 c-168 0 -208 -11 -270 -72 -59 -60 -69 -95
-69 -265 l0 -153 -125 0 -125 0 0 -120 0 -120 125 0 125 0 0 -125 0 -125 -125
0 -125 0 0 -120 0 -120 125 0 125 0 0 -152 c0 -171 10 -206 69 -266 62 -61
102 -72 270 -72 l151 0 0 -125 0 -125 120 0 120 0 0 125 0 125 125 0 125 0 0
-125 0 -125 120 0 120 0 0 125 0 125 151 0 c168 0 208 11 268 71 60 60 66 79
69 257 l4 162 124 0 124 0 0 120 0 120 -125 0 -125 0 0 125 0 125 125 0 125 0
0 120 0 120 -125 0 -125 0 0 153 c0 170 -10 205 -69 265 -62 61 -102 72 -270
72 l-151 0 0 125 0 125 -120 0 -120 0 0 -125 0 -125 -125 0 -125 0 0 125 0
125 -120 0 -120 0 0 -125z m980 -980 l0 -615 -615 0 -615 0 0 615 0 615 615 0
615 0 0 -615z"/>
<path d="M910 1275 l0 -365 365 0 365 0 0 365 0 365 -365 0 -365 0 0 -365z
m485 0 l0 -120 -120 0 -120 0 -3 109 c-1 61 0 116 2 123 4 11 32 13 123 11
l118 -3 0 -120z"/>
</g>
</svg>
